<?xml version="1.0" encoding="utf-8"?>
<svg viewBox="0 0 98 82" xmlns="http://www.w3.org/2000/svg">
  <g transform="matrix(1, 0, 0, 1, -1.88498, -8.731388)">
    <g>
      <path class="st0" d="M74,23.4c6.5,6,12.8,12.2,19,19c4,4.4,4,10.9,0,15.3c-6,6.5-12.3,12.8-19,19c-4.4,4-10.9,4.1-15.3,0 c-6.5-6.1-12.9-12.3-19-19c-4-4.4-4.1-10.9,0-15.3c6.1-6.4,12.3-12.7,19-19C63.1,19.3,69.7,19.3,74,23.4z" style="clip-rule: evenodd; fill: rgb(25, 160, 255); fill-rule: evenodd;"/>
      <path class="st1" d="M44.5,73.8c-6.9,5.6-16.6,5.3-23-1.2L11,61.8c-6.7-6.9-6.5-17.1,0.3-23.9l10.6-10.6c3.2-3.2,7.2-4.8,11.3-5 c4.1-0.3,8.1,1.2,11.6,4c-4.4,4.3-8.6,8.5-12.9,13c-5.4,5.7-5.5,15.4-0.3,21.2C35.7,65.1,40.1,69.5,44.5,73.8z" style="clip-rule: evenodd; fill: rgb(25, 160, 255); fill-rule: evenodd; opacity: 0.5;"/>
    </g>
  </g>
</svg>