<?xml version="1.0" encoding="UTF-8"?>
<svg xmlns="http://www.w3.org/2000/svg" xmlns:xlink="http://www.w3.org/1999/xlink" width="50px" height="50px" preserveAspectRatio="xMidYMid" version="1.1" viewBox="30 40 90 115">
 <g id="surface1">
  <path style=" stroke:none;fill-rule:evenodd;fill:rgb(9.803922%,63.137255%,100%);fill-opacity:1;" d="M 103.078125 64.601562 C 110.964844 71.851562 118.710938 79.488281 126.210938 87.707031 C 131.066406 93.050781 131.101562 100.96875 126.210938 106.292969 C 118.90625 114.25 111.160156 121.9375 103.078125 129.398438 C 97.765625 134.300781 89.769531 134.335938 84.492188 129.398438 C 76.554688 121.972656 68.71875 114.40625 61.359375 106.292969 C 56.507812 100.933594 56.398438 92.960938 61.359375 87.707031 C 68.753906 79.910156 76.429688 72.203125 84.492188 64.601562 C 89.753906 59.644531 97.765625 59.714844 103.078125 64.601562 Z M 103.078125 64.601562 "/>
  <path style=" stroke:none;fill-rule:evenodd;fill:rgb(26.27451%,41.568627%,69.803922%);fill-opacity:1;" d="M 67.128906 126.066406 C 58.730469 132.835938 46.871094 132.539062 39.160156 124.652344 L 26.171875 111.410156 C 17.964844 103.03125 18.195312 90.597656 26.488281 82.292969 L 39.386719 69.363281 C 43.234375 65.519531 48.195312 63.527344 53.136719 63.226562 C 58.148438 62.910156 63.035156 64.671875 67.21875 68.058594 C 61.871094 73.242188 56.664062 78.464844 51.476562 83.929688 C 44.945312 90.84375 44.753906 102.75 51.140625 109.785156 C 56.3125 115.5 61.675781 120.84375 67.128906 126.066406 Z M 67.128906 126.066406 "/>
 </g>
</svg>
