<?xml version="1.0" encoding="utf-8"?>
<svg viewBox="0 0 70 70" xmlns="http://www.w3.org/2000/svg">
  <g transform="matrix(1, 0, 0, 1, -15.016418, -15.136594)">
    <g>
      <g>
        <path class="st6" d="M50,83.2c-3,0-5.9-1.1-8.1-3.2C35.2,73.7,27.4,66.2,20,58.1c-4.3-4.7-4.3-11.7,0-16.3 c7.4-7.8,14.6-15,21.9-21.9c2.2-2.1,5.1-3.2,8.1-3.2c3,0,5.9,1.2,8.2,3.2c8.1,7.5,15.3,14.6,21.9,21.9c4.3,4.7,4.3,11.6,0,16.3 C73.4,65.3,66.1,72.7,58.1,80C55.9,82.1,53,83.2,50,83.2z" style="clip-rule: evenodd; fill: rgb(15, 15, 15); fill-rule: evenodd;"/>
        <path class="st0" d="M50,17.8L50,17.8c2.8,0,5.4,1.1,7.5,3c8.1,7.4,15.2,14.6,21.8,21.8c4,4.3,4,10.6,0,14.9 C72.7,64.6,65.4,72,57.5,79.3c-2.1,1.9-4.7,3-7.5,3c-2.7,0-5.4-1.1-7.4-3C35.9,73,28.1,65.5,20.8,57.5c-3.9-4.4-4-10.8,0-14.9 c7.4-7.8,14.5-14.9,21.8-21.8C44.6,18.8,47.2,17.8,50,17.8 M50,15.8c-3.1,0-6.3,1.2-8.8,3.5c-7.6,7.2-14.9,14.5-21.9,21.9 c-4.7,5-4.6,12.5,0,17.6c7,7.7,14.4,14.9,21.9,21.9c2.5,2.3,5.6,3.5,8.8,3.5c3.2,0,6.3-1.2,8.8-3.5c7.7-7.1,15-14.4,21.9-21.9 c4.6-5.1,4.6-12.6,0-17.6c-7.1-7.8-14.4-15-21.9-21.9C56.3,16.9,53.1,15.8,50,15.8L50,15.8z" style="fill: rgb(25, 160, 255);"/>
      </g>
      <polyline class="st7" points="47.6,43.7 54.1,50.2 47.6,56.6 &#9;&#9;&#9;" style="fill: none; stroke: rgb(255, 255, 255); stroke-linecap: round; stroke-linejoin: round; stroke-miterlimit: 10; stroke-width: 4px;"/>
    </g>
  </g>
</svg>