<?xml version="1.0" encoding="utf-8"?>
<!-- Generator: Adobe Illustrator 21.0.2, SVG Export Plug-In . SVG Version: 6.00 Build 0)  -->
<svg version="1.1" id="Layer_1" xmlns="http://www.w3.org/2000/svg" xmlns:xlink="http://www.w3.org/1999/xlink" x="0px" y="0px"
	 viewBox="0 0 200 200" style="enable-background:new 0 0 200 200;" xml:space="preserve">
<style type="text/css">
	.st0{fill:#FFFFFF;}
</style>
<g>
	<path class="st0" d="M100,63.5L100,63.5c-20.2,0-36.5,16.4-36.5,36.5l0,0c0,20.2,16.4,36.5,36.5,36.5l0,0
		c20.2,0,36.5-16.4,36.5-36.5l0,0C136.5,79.8,120.2,63.5,100,63.5z M110.2,85.7c0,0-3.4,0-4.8,0c-1.7,0-2.1,0.7-2.1,2.5
		c0,1.5,0,4.2,0,4.2h6.9l-0.7,7.5h-6.2v22.3h-8.9V99.9h-4.6v-7.5h4.6c0,0,0-1.1,0-5.9c0-5.6,3-8.5,9.6-8.5c1.1,0,6.2,0,6.2,0V85.7z"
		/>
</g>
</svg>
