<?xml version="1.0" encoding="utf-8"?>
<!-- Generator: Adobe Illustrator 21.0.2, SVG Export Plug-In . SVG Version: 6.00 Build 0)  -->
<svg version="1.1" id="Layer_1" xmlns="http://www.w3.org/2000/svg" xmlns:xlink="http://www.w3.org/1999/xlink" x="0px" y="0px"
	 viewBox="0 0 200 200" style="enable-background:new 0 0 200 200;" xml:space="preserve">
<style type="text/css">
	.st0{fill:#FFFFFF;}
</style>
<path class="st0" d="M100,63.5c-20.7,0-37.5,16.8-37.5,37.5c0,16.6,10.7,30.6,25.6,35.5c1.9,0.3,2.6-0.8,2.6-1.8c0-0.9,0-3.8,0-7
	c-9.4,1.7-11.8-2.3-12.6-4.4c-0.4-1.1-2.2-4.4-3.8-5.3c-1.3-0.7-3.2-2.4,0-2.5c2.9,0,5.1,2.7,5.8,3.8c3.4,5.7,8.8,4.1,10.9,3.1
	c0.3-2.4,1.3-4.1,2.4-5c-8.3-0.9-17-4.2-17-18.5c0-4.1,1.5-7.4,3.8-10.1c-0.4-0.9-1.7-4.8,0.4-9.9c0,0,3.1-1,10.3,3.8
	c3-0.8,6.2-1.3,9.4-1.3s6.4,0.4,9.4,1.3c7.2-4.9,10.3-3.8,10.3-3.8c2.1,5.1,0.7,9,0.4,9.9c2.4,2.6,3.8,5.9,3.8,10.1
	c0,14.4-8.8,17.6-17.1,18.5c1.4,1.2,2.5,3.4,2.5,6.9c0,5,0,9,0,10.3c0,1,0.7,2.2,2.6,1.8c14.8-5,25.5-19,25.5-35.5
	C137.5,80.2,120.7,63.5,100,63.5z"/>
</svg>
