<?xml version="1.0" encoding="utf-8"?>
<!-- Generator: Adobe Illustrator 21.0.2, SVG Export Plug-In . SVG Version: 6.00 Build 0)  -->
<svg version="1.1" id="Layer_1" xmlns="http://www.w3.org/2000/svg" xmlns:xlink="http://www.w3.org/1999/xlink" x="0px" y="0px"
	 viewBox="0 0 200 200" style="enable-background:new 0 0 200 200;" xml:space="preserve">
<style type="text/css">
	.st0{fill:#FFFFFF;}
</style>
<g>
	<path class="st0" d="M100,63.5c-20.2,0-36.5,16.4-36.5,36.5v0c0,20.2,16.4,36.5,36.5,36.5s36.5-16.4,36.5-36.5v0
		C136.5,79.8,120.2,63.5,100,63.5z M91,116.3h-7.6V91.9H91V116.3z M87.2,88.7c-2.5,0-4.5-2-4.5-4.5c0-2.5,2-4.5,4.5-4.5
		c2.5,0,4.5,2,4.5,4.5C91.7,86.6,89.6,88.7,87.2,88.7z M119.3,116.3h-7.5c0,0,0-9.3,0-12.8c0-3.5-1.3-5.5-4.1-5.5
		c-3,0-4.6,2-4.6,5.5c0,3.8,0,12.8,0,12.8h-7.3V91.9h7.3v3.3c0,0,2.2-4,7.4-4c5.2,0,8.9,3.2,8.9,9.7S119.3,116.3,119.3,116.3z"/>
</g>
</svg>
